<?xml version="1.0" standalone="no"?>
<!DOCTYPE svg PUBLIC "-//W3C//DTD SVG 20010904//EN"
 "http://www.w3.org/TR/2001/REC-SVG-20010904/DTD/svg10.dtd">
<svg version="1.0" xmlns="http://www.w3.org/2000/svg"
 width="468.000000pt" height="282.000000pt" viewBox="0 0 468.000000 282.000000"
 preserveAspectRatio="xMidYMid meet">

<g transform="translate(0.000000,282.000000) scale(0.100000,-0.100000)"
fill="#000000" stroke="none">
<path d="M1155 2224 c-160 -58 -318 -192 -409 -346 -78 -130 -120 -316 -106
-473 19 -219 66 -324 223 -500 43 -49 162 -134 234 -168 26 -12 59 -30 73 -39
39 -26 177 -51 275 -51 92 -1 225 28 272 58 12 8 52 31 90 51 103 56 108 59
113 65 3 3 32 24 65 47 194 136 308 237 562 495 120 122 238 238 262 258 l45
35 -33 80 c-17 43 -42 99 -54 124 l-22 45 -130 32 c-71 17 -137 32 -146 32 -9
1 -53 -33 -98 -74 -44 -41 -88 -75 -96 -75 -8 0 -15 -5 -15 -11 0 -5 -4 -7
-10 -4 -5 3 -10 0 -10 -8 0 -7 -11 -20 -25 -27 -13 -7 -22 -17 -19 -22 3 -4
-2 -8 -11 -8 -8 0 -20 -11 -25 -25 -5 -14 -20 -30 -32 -35 -13 -5 -19 -9 -14
-9 4 -1 -6 -14 -23 -30 -18 -17 -37 -29 -44 -27 -7 1 -9 1 -4 -1 14 -9 7 -25
-9 -19 -8 3 -13 2 -10 -3 3 -4 -16 -31 -42 -59 -40 -42 -51 -49 -62 -39 -12
10 -12 9 -1 -5 18 -24 9 -35 -99 -129 -52 -45 -103 -90 -112 -100 -25 -26
-146 -95 -192 -109 -58 -19 -161 -8 -221 22 -147 75 -214 273 -143 419 37 74
89 125 165 161 l63 30 -59 76 c-33 43 -69 87 -81 100 -20 21 -20 28 -13 142 5
65 7 124 5 130 -5 13 -28 12 -77 -6z"/>
<path d="M2195 1850 c-3 -5 -1 -10 4 -10 6 0 11 5 11 10 0 6 -2 10 -4 10 -3 0
-8 -4 -11 -10z"/>
</g>
</svg>
